# xmcd
#
# Track frame offsets:
#	150
#	18360
#	37039
#	59130
#	81828
#	107804
#	130372
#
# Disc length: 2060 seconds
# Revision: 0
# Processed by: cddbd v1.5.2PL0 Copyright (c) Steve Scherf et al.
# Submitted via: dBpowerAMP V12.0
#
DISCID=60080a07
DTITLE=Mick Ralphs Blues Band - Should Know Better
DYEAR=2013
DGENRE=Blues
TTITLE0=Should Know Better
TTITLE1=Born Under A Bad Sign
TTITLE2=Just A Little Bit Of Your Love
TTITLE3=Shame Shame Shame
TTITLE4=Evil
TTITLE5=Well Conected
TTITLE6=Big River
EXTD=
EXTT0=
EXTT1=
EXTT2=
EXTT3=
EXTT4=
EXTT5=
EXTT6=
PLAYORDER=
